<svg width="153" height="209" viewBox="0 0 153 209" fill="none" xmlns="http://www.w3.org/2000/svg">
<line x1="6.99994" y1="1.02439" x2="5.99031" y2="208.028" stroke="#77ADD5" stroke-opacity="0.8" stroke-width="10"/>
<line y1="-5" x2="207.009" y2="-5" transform="matrix(0.00729291 0.999973 -0.999972 0.00746547 140.504 1.31543)" stroke="#77ADD5" stroke-opacity="0.8" stroke-width="10"/>
<line x1="10.8468" y1="203.026" x2="142.025" y2="203.319" stroke="#77ADD5" stroke-opacity="0.8" stroke-width="10"/>
<path d="M11 6L142.178 6.29334" stroke="#77ADD5" stroke-opacity="0.8" stroke-width="10"/>
<line x1="47.6803" y1="50.8579" x2="121.653" y2="51.0233" stroke="#C4C4C4" stroke-width="4"/>
<line x1="47.6291" y1="73.7473" x2="121.601" y2="73.9127" stroke="#C4C4C4" stroke-width="4"/>
<line x1="47.5779" y1="96.6367" x2="121.55" y2="96.8021" stroke="#C4C4C4" stroke-width="4"/>
<line x1="47.5267" y1="119.526" x2="121.499" y2="119.691" stroke="#C4C4C4" stroke-width="4"/>
<line x1="47.4755" y1="142.415" x2="121.448" y2="142.581" stroke="#C4C4C4" stroke-width="4"/>
<line x1="47.4243" y1="165.305" x2="121.397" y2="165.47" stroke="#C4C4C4" stroke-width="4"/>
<rect x="29.8334" y="92.6259" width="6.90411" height="6.96635" transform="rotate(0.128126 29.8334 92.6259)" fill="#C4C4C4"/>
<rect x="29.7822" y="115.515" width="6.90411" height="6.96635" transform="rotate(0.128126 29.7822 115.515)" fill="#C4C4C4"/>
<rect x="29.731" y="138.405" width="6.90411" height="6.96635" transform="rotate(0.128126 29.731 138.405)" fill="#C4C4C4"/>
<rect x="29.6798" y="161.294" width="6.90411" height="6.96635" transform="rotate(0.128126 29.6798 161.294)" fill="#C4C4C4"/>
<rect x="29.8846" y="69.7365" width="6.90411" height="6.96635" transform="rotate(0.128126 29.8846 69.7365)" fill="#C4C4C4"/>
<rect x="29.9358" y="46.847" width="6.90411" height="6.96635" transform="rotate(0.128126 29.9358 46.847)" fill="#C4C4C4"/>
</svg>
